<svg xmlns="http://www.w3.org/2000/svg" xmlns:xlink="http://www.w3.org/1999/xlink" version="1.1" id="pattern" x="0px" y="0px" viewBox="0 0 1200 1200" style="enable-background:new 0 0 1200 1200;" xml:space="preserve" fill="#00000000">
<g>
	<polygon points="0,483.401 0,638.942 23.85,535.006  "/>
	<polygon  points="1008.472,952.968 892.624,1200 1200,1200 1200,1191.574  "/>
	<path  d="M304.436,1138.963L53.743,988.778L26.077,1049L0,1105.765V1200h406.322l-101.716-60.935   C304.55,1139.031,304.493,1138.997,304.436,1138.963z"/>
	<polygon  points="604.097,1200 825.525,1200 724.327,850.43  "/>
	<path  d="M290.545,1112.059L156.842,822.764c-0.057-0.118-0.111-0.236-0.163-0.353l-34.668-75.012   c0-0.001-0.001-0.002-0.001-0.002L34.778,558.651L0,710.208v227.793l54.308,32.535L290.545,1112.059z"/>
	<path  d="M1012.112,320.972c0.012,0.005,0.024,0.01,0.037,0.015L1200,399.135V132.835L927.85,285.919   L1012.112,320.972z"/>
	<polygon  points="1200,728.059 1200,416.4 1024.672,343.463  "/>
	<path  d="M959.148,316.204l-44.688-18.59l-46.712,135.817L736.414,815.287l333.701-21.99   c0.127-0.011,0.257-0.021,0.386-0.027L1200,784.737v-18.249l-196.946-432.018L959.148,316.204z"/>
	<path  d="M717.461,821.388l134.14-390.02l-83.504-171.186L505.45,508.01L566.37,1200h20.872l130.186-378.518   C717.439,821.45,717.449,821.417,717.461,821.388z"/>
	<polygon  points="1016.008,936.896 1200,1166.107 1200,800.712 1076.043,808.881  "/>
	<path  d="M999.536,934.485l58.339-124.408L735.39,831.329L842.121,1200h32.899l124.386-265.242   C999.448,934.666,999.489,934.575,999.536,934.485z"/>
	<path  d="M583.071,0H512.73L201.344,120.429c-0.074,0.03-0.149,0.059-0.225,0.088L0,198.3v247.106   l130.283,281.899L583.071,0z"/>
	<polygon  points="54.265,0 0,0 0,181.209 183.052,110.413  "/>
	<polygon  points="181.579,0 78.755,0 188.921,94.449  "/>
	<path  d="M138.283,744.616l28.3,61.231l325.082-306.745c0.029-0.026,0.057-0.053,0.086-0.081l269.027-253.848   L641.184,0h-39.336l-176.23,283.075L138.283,744.616z"/>
	<polygon  points="173.635,821.107 314.827,1126.606 437.34,1200 550.368,1200 490.677,521.951  "/>
	<polygon  points="858.935,410.044 999.963,0 658.919,0 777.673,243.453  "/>
	<polygon  points="1200,114.547 1200,0 1016.82,0 924.034,269.777  "/>
	<polygon  points="0,956.583 0,1067.583 39.987,980.538  "/>
	<polygon  points="442.902,9.916 443.909,0 197.566,0 205.475,101.742  "/>
	
		<linearGradient id="SVGID_1_" gradientUnits="userSpaceOnUse" x1="-1022.2305" y1="-15.7058" x2="4344.9824" y2="725.4238" gradientTransform="matrix(0.9902 0.1396 -0.1396 0.9902 89.1678 -77.639)">
		<stop offset="0" style="stop-color:#FF004F"/>
		<stop offset="0.0937" style="stop-color:#FF004F"/>
		<stop offset="0.1637" style="stop-color:#544125"/>
		<stop offset="0.2774" style="stop-color:#FF004F"/>
		<stop offset="0.3848" style="stop-color:#FF004F"/>
		<stop offset="0.5135" style="stop-color:#6B542D"/>
		<stop offset="0.6203" style="stop-color:#FF004F"/>
		<stop offset="0.6831" style="stop-color:#FF004F"/>
		<stop offset="0.774" style="stop-color:#58411A"/>
		<stop offset="0.8918" style="stop-color:#FF004F"/>
		<stop offset="1" style="stop-color:#FF004F"/>
	</linearGradient>
	<path style="fill:url(#SVGID_1_);" d="M201.344,120.429L512.73,0h-68.822l-1.007,9.916l-237.427,91.826L197.566,0h-15.987   l7.342,94.449L78.755,0h-24.49l128.787,110.413L0,181.209V198.3l201.119-77.783C201.195,120.488,201.27,120.459,201.344,120.429z"/>
	
		<linearGradient id="SVGID_00000103250901814435323640000006603098054480939667_" gradientUnits="userSpaceOnUse" x1="-1072.5204" y1="348.2473" x2="4294.9458" y2="1089.412" gradientTransform="matrix(0.9902 0.1396 -0.1396 0.9902 89.1678 -77.639)">
		<stop offset="0" style="stop-color:#FF004F"/>
		<stop offset="0.0937" style="stop-color:#FF004F"/>
		<stop offset="0.1637" style="stop-color:#544125"/>
		<stop offset="0.2774" style="stop-color:#FF004F"/>
		<stop offset="0.3848" style="stop-color:#FF004F"/>
		<stop offset="0.5135" style="stop-color:#6B542D"/>
		<stop offset="0.6203" style="stop-color:#FF004F"/>
		<stop offset="0.6831" style="stop-color:#FF004F"/>
		<stop offset="0.774" style="stop-color:#58411A"/>
		<stop offset="0.8918" style="stop-color:#FF004F"/>
		<stop offset="1" style="stop-color:#FF004F"/>
	</linearGradient>
	<path style="fill:url(#SVGID_00000103250901814435323640000006603098054480939667_);" d="M1200,1191.574v-25.467l-183.992-229.211   l60.034-128.015L1200,800.712v-15.975l-129.499,8.534c-0.129,0.005-0.259,0.016-0.386,0.027l-333.701,21.99l131.334-381.856   l46.712-135.817l44.688,18.59l43.906,18.265L1200,766.488v-38.429l-175.328-384.596L1200,416.4v-17.265l-187.852-78.148   c-0.012-0.005-0.024-0.01-0.037-0.015l-84.262-35.053L1200,132.835v-18.288l-275.966,155.23L1016.82,0h-16.857L858.935,410.044   l-81.262-166.59L658.919,0h-17.735l119.594,245.174L491.751,499.021c-0.029,0.028-0.058,0.055-0.086,0.081L166.583,805.847   l-28.3-61.231l287.335-461.541L601.848,0h-18.777L130.283,727.305L0,445.405v37.996l23.85,51.605L0,638.942v71.267l34.778-151.558   l87.232,188.746c0,0.001,0.001,0.001,0.001,0.002l34.668,75.012c0.052,0.117,0.106,0.235,0.163,0.353l133.703,289.295   L54.308,970.536L0,938.001v18.581l39.987,23.955L0,1067.583v38.182L26.077,1049l27.666-60.222l250.693,150.185   c0.057,0.034,0.114,0.068,0.17,0.103L406.322,1200h31.018l-122.513-73.394L173.635,821.107l317.042-299.156L550.368,1200h16.001   L505.45,508.01l262.647-247.829l83.504,171.186l-134.14,390.02c-0.012,0.03-0.022,0.062-0.034,0.095L587.241,1200h16.855   l120.23-349.569L825.525,1200h16.595L735.39,831.329l322.485-21.252l-58.339,124.408c-0.047,0.09-0.089,0.181-0.13,0.272   L875.02,1200h17.604l115.848-247.032L1200,1191.574z"/>
</g>
</svg>