<svg xmlns="http://www.w3.org/2000/svg" version="1.1" width="846" height="1826" viewBox="0 0 846 1826" preserveAspectRatio="xMidYMid meet">


  <g transform="translate(0,1826) scale(0.1,-0.1)" fill="#000000" stroke="none" shape-rendering="geometricPrecision">
<path d="M4117 18123 c-14 -24 -30 -84 -44 -163 -23 -129 -38 -195 -72 -315 -11 -38 -18 -72 -15 -76 7 -13 -107 -346 -158 -459 -14 -30 -31 -73 -38 -95 -29 -88 -217 -473 -249 -510 -16 -18 -71 -113 -164 -285 -16 -30 -35 -62 -42 -70 -7 -8 -21 -37 -31 -65 -10 -27 -43 -88 -74 -135 -31 -47 -69 -107 -86 -133 -16 -26 -71 -111 -121 -188 -51 -77 -102 -157 -113 -179 -30 -60 -109 -170 -160 -225 -26 -28 -53 -62 -60 -75 -7 -14 -41 -63 -75 -110 -35 -47 -72 -102 -84 -124 -40 -71 -235 -329 -315 -415 -43 -47 -84 -97 -90 -111 -6 -13 -20 -34 -31 -46 -11 -12 -42 -54 -70 -93 -27 -39 -68 -95 -90 -124 -22 -29 -44 -60 -50 -69 -42 -67 -111 -167 -127 -185 -21 -22 -26 -30 -61 -92 -34 -60 -290 -446 -323 -488 -19 -22 -39 -52 -44 -65 -6 -12 -16 -32 -23 -43 -74 -120 -127 -216 -127 -227 0 -8 -4 -18 -9 -23 -5 -6 -21 -32 -36 -60 -15 -27 -36 -59 -45 -70 -10 -11 -43 -69 -73 -130 -30 -60 -61 -123 -70 -140 -9 -16 -17 -37 -17 -46 0 -9 -7 -19 -15 -23 -8 -3 -15 -12 -15 -20 0 -13 -30 -85 -61 -148 -5 -10 -9 -23 -9 -29 0 -6 -11 -37 -24 -68 -23 -55 -72 -181 -136 -351 -17 -47 -36 -107 -42 -135 -9 -46 -24 -105 -64 -240 -8 -28 -18 -73 -23 -100 -5 -28 -19 -90 -30 -140 -46 -192 -55 -277 -66 -585 -3 -74 -9 -245 -14 -380 -13 -330 -7 -1649 7 -1715 6 -27 16 -122 22 -210 6 -88 17 -191 25 -230 8 -38 15 -94 15 -123 0 -29 7 -69 15 -89 8 -19 20 -76 25 -125 6 -50 17 -100 25 -111 8 -12 15 -31 15 -44 0 -20 25 -110 65 -233 8 -25 15 -56 15 -68 0 -13 6 -36 14 -50 7 -15 26 -67 42 -117 15 -49 34 -101 41 -115 6 -14 26 -59 43 -100 17 -41 37 -88 45 -105 7 -16 16 -41 20 -55 10 -33 66 -155 115 -253 22 -43 40 -89 40 -101 0 -12 4 -26 9 -32 5 -5 33 -56 63 -114 30 -58 68 -127 85 -155 17 -27 43 -68 56 -90 14 -22 48 -85 77 -139 28 -55 61 -113 73 -130 12 -17 27 -38 32 -47 6 -10 25 -38 43 -64 17 -25 32 -50 32 -54 0 -4 9 -16 20 -26 11 -10 20 -23 21 -29 0 -6 27 -45 59 -86 33 -41 84 -112 115 -157 82 -119 206 -285 312 -416 98 -120 170 -215 200 -262 18 -27 45 -67 60 -89 30 -41 41 -57 87 -127 16 -24 46 -64 66 -89 21 -25 46 -60 56 -79 11 -19 31 -55 45 -80 78 -136 140 -271 134 -292 -6 -19 -35 -53 -146 -177 -52 -57 -123 -118 -194 -167 -32 -22 -65 -47 -74 -55 -54 -50 -222 -131 -365 -176 -61 -19 -147 -47 -191 -61 -112 -38 -479 -82 -515 -63 -10 5 -79 10 -152 10 -73 0 -172 5 -221 10 -48 6 -97 10 -110 10 -156 0 -149 -1 -455 56 -93 18 -137 12 -154 -19 -8 -16 -12 -164 -13 -527 -1 -278 -5 -617 -8 -755 -4 -166 -2 -267 6 -300 13 -60 48 -101 114 -134 26 -13 73 -36 104 -52 130 -66 345 -149 387 -149 10 0 51 -11 92 -23 118 -37 179 -54 260 -72 41 -9 98 -24 125 -32 28 -9 66 -20 85 -24 46 -12 320 -39 388 -39 30 0 78 -7 107 -15 43 -13 96 -15 281 -11 126 2 288 9 359 15 323 26 391 34 408 43 10 5 64 15 120 23 138 19 274 42 285 49 5 3 55 10 113 16 57 6 140 20 184 31 44 11 127 31 184 45 97 23 143 39 181 63 8 5 44 17 80 26 58 16 245 72 369 111 25 8 57 14 72 14 38 0 323 95 379 126 56 32 128 57 144 51 7 -3 44 5 82 18 189 64 414 150 449 171 47 29 202 60 273 55 11 -1 12 -31 7 -153 -7 -172 -7 -432 -1 -968 4 -360 4 -366 29 -437 42 -119 134 -230 230 -279 29 -14 59 -32 67 -39 44 -39 181 -68 300 -63 83 3 103 8 160 36 36 17 71 32 78 32 35 0 158 110 229 205 34 46 106 191 123 252 7 23 10 51 7 63 -3 12 -1 33 3 48 14 42 32 194 40 342 4 74 15 167 25 205 15 62 16 107 10 410 -3 187 -6 504 -6 705 1 296 -2 374 -14 414 -8 27 -15 70 -16 95 0 25 -9 84 -20 131 -26 116 -26 116 -39 140 -6 12 -16 44 -21 71 -5 27 -13 70 -18 96 -9 43 -98 232 -154 323 -69 114 -115 180 -154 219 -24 24 -56 67 -69 94 -42 82 -283 348 -429 472 -32 28 -83 79 -112 115 -61 74 -375 356 -407 366 -12 3 -64 49 -116 103 -90 91 -126 122 -285 251 -38 30 -96 78 -130 106 -34 29 -76 59 -93 68 -18 9 -32 21 -32 26 0 5 -48 51 -108 101 -59 51 -134 116 -167 144 -194 169 -238 205 -248 205 -7 0 -22 10 -33 23 -87 92 -490 483 -505 489 -10 4 -31 26 -46 50 -15 24 -75 102 -134 173 -58 72 -147 185 -198 253 -51 67 -97 122 -102 122 -5 0 -22 26 -37 57 -35 73 -78 147 -114 197 -15 21 -28 42 -28 47 0 4 -22 46 -50 94 -27 48 -50 90 -50 95 0 5 -11 21 -23 37 -51 61 -190 406 -216 538 -11 55 -27 125 -36 155 -24 82 -48 227 -49 295 0 33 1 159 2 280 3 201 5 216 16 170 14 -54 66 -179 121 -291 19 -38 35 -73 35 -77 0 -4 15 -32 33 -63 17 -31 48 -84 67 -119 19 -35 55 -91 80 -125 25 -35 50 -70 55 -79 6 -9 36 -47 69 -85 32 -39 74 -103 93 -143 20 -40 38 -71 42 -70 10 3 113 -86 253 -220 70 -68 147 -136 169 -153 23 -17 48 -39 55 -49 11 -16 132 -114 452 -369 24 -19 64 -45 90 -59 26 -13 67 -44 92 -68 25 -23 110 -91 190 -151 80 -60 159 -119 175 -132 17 -12 44 -29 61 -37 38 -17 222 -162 285 -224 26 -26 55 -53 65 -61 86 -71 127 -102 174 -135 92 -64 299 -243 407 -352 56 -57 106 -103 112 -103 18 0 183 -150 371 -337 96 -96 195 -193 220 -216 86 -80 312 -320 349 -371 21 -28 65 -79 97 -111 118 -120 271 -326 299 -403 7 -20 27 -64 43 -97 73 -143 102 -227 102 -292 l0 -63 51 -40 c28 -22 54 -40 59 -40 23 0 30 32 25 106 -4 44 -10 378 -14 744 l-7 665 -26 60 c-14 33 -36 92 -48 130 -20 61 -108 254 -142 310 -7 11 -22 36 -34 55 -11 19 -24 46 -27 60 -8 30 -197 267 -236 295 -41 29 -192 191 -208 223 -19 36 -278 297 -327 329 -51 33 -206 182 -206 199 0 15 -279 262 -321 284 -40 21 -277 222 -278 236 -2 23 -229 214 -254 214 -20 0 -358 266 -412 324 -46 49 -97 86 -118 86 -8 0 -79 48 -158 108 -79 59 -190 140 -247 180 -56 40 -112 87 -125 104 -12 17 -41 39 -65 49 -23 10 -59 31 -80 47 -20 15 -66 50 -102 77 -129 97 -215 172 -327 282 -63 61 -128 118 -146 126 -18 9 -84 69 -148 134 -139 140 -170 176 -194 223 -20 39 -56 85 -131 169 -80 90 -246 389 -276 496 -6 22 -22 76 -35 120 -14 44 -35 121 -48 171 -13 50 -28 100 -34 110 -17 33 -30 139 -21 180 5 21 6 144 3 273 -2 130 -5 327 -6 438 l-2 203 -27 26 c-41 42 -55 28 -63 -63 -3 -43 -10 -121 -16 -173 -20 -212 -28 -500 -22 -854 4 -254 3 -387 -5 -417 -7 -31 -7 -112 0 -279 9 -208 10 -413 3 -890 -1 -74 2 -209 7 -300 5 -91 11 -370 13 -620 5 -428 13 -627 35 -815 16 -132 23 -218 22 -249 -2 -37 24 -169 42 -216 7 -19 26 -75 41 -125 15 -49 34 -108 41 -130 8 -23 14 -51 14 -63 0 -28 97 -275 159 -402 38 -81 63 -126 132 -240 5 -8 18 -33 30 -55 49 -90 204 -333 240 -375 22 -25 83 -101 136 -170 290 -376 743 -829 1233 -1235 52 -43 101 -87 108 -97 7 -10 39 -37 70 -60 69 -50 452 -369 470 -391 17 -20 11 -23 -94 -47 -49 -12 -132 -34 -184 -50 -52 -16 -117 -34 -145 -40 -27 -5 -106 -26 -175 -45 -315 -88 -399 -109 -455 -115 -51 -6 -191 -38 -360 -81 -22 -6 -67 -16 -100 -24 -33 -7 -87 -22 -120 -33 -105 -35 -425 -96 -491 -94 -28 1 -75 -3 -105 -9 -64 -13 -252 -37 -258 -33 -2 2 1 92 7 201 7 125 7 202 1 208 -12 12 -12 298 1 478 13 195 18 470 9 542 -8 68 -18 265 -24 503 -2 90 -7 167 -10 172 -3 5 -10 37 -15 72 -18 122 -58 275 -90 343 -11 22 -31 72 -46 110 -29 79 -119 262 -140 286 -8 8 -14 19 -14 24 0 14 -51 86 -95 135 -23 25 -59 72 -81 105 -56 84 -114 167 -130 185 -7 8 -26 40 -41 70 -46 86 -78 132 -125 176 -24 22 -56 61 -73 85 -16 24 -46 64 -66 89 -65 80 -239 330 -239 343 0 7 -16 29 -36 48 -19 18 -50 57 -68 84 -18 28 -68 104 -111 170 -43 66 -91 139 -106 163 -16 24 -29 53 -29 66 0 13 -8 34 -18 47 -10 13 -22 31 -26 39 -4 8 -27 51 -51 95 -25 44 -56 102 -70 128 -14 26 -34 56 -44 66 -27 27 -81 126 -81 149 0 21 -19 67 -73 182 -14 30 -52 116 -83 190 -32 74 -68 149 -79 165 -26 36 -75 161 -109 276 -14 46 -34 111 -46 144 -12 33 -23 85 -25 115 -2 33 -18 96 -42 160 -22 58 -50 156 -63 218 -22 109 -23 115 -7 145 16 30 29 83 62 261 23 126 54 228 80 266 13 19 42 85 64 145 21 61 62 164 90 230 28 65 51 129 51 141 0 35 180 414 216 455 8 8 14 20 14 26 0 5 9 18 20 28 11 10 20 27 20 38 0 10 27 64 60 119 33 54 60 101 60 104 0 3 11 20 24 37 13 18 32 48 43 67 37 68 116 185 139 205 31 28 153 209 177 265 11 25 34 63 51 85 18 22 47 61 64 86 17 26 48 62 67 80 54 51 317 403 350 469 9 19 32 51 50 70 18 19 90 112 160 205 70 94 134 174 141 178 8 4 14 13 14 18 0 6 8 22 19 35 18 23 18 19 20 -234 3 -449 28 -852 64 -1022 32 -152 95 -388 113 -422 8 -15 14 -34 14 -43 0 -10 6 -31 14 -48 8 -18 29 -66 46 -107 75 -180 352 -683 409 -742 9 -9 26 -31 39 -50 132 -191 387 -502 493 -599 52 -48 177 -169 279 -269 102 -100 203 -194 225 -208 37 -23 300 -230 459 -360 38 -32 76 -61 85 -67 9 -5 48 -33 86 -61 39 -28 147 -106 240 -174 94 -68 196 -147 229 -176 32 -29 81 -65 109 -80 28 -14 74 -42 102 -62 164 -115 275 -199 310 -233 47 -47 280 -221 327 -245 51 -27 133 -90 185 -143 27 -27 143 -128 258 -224 249 -207 232 -191 465 -437 102 -107 215 -224 251 -260 37 -36 76 -83 87 -105 11 -22 45 -70 74 -107 65 -83 103 -134 148 -203 19 -30 61 -87 92 -129 32 -41 58 -77 58 -80 0 -3 18 -35 40 -70 56 -93 99 -181 125 -256 12 -36 33 -81 47 -101 33 -48 99 -206 202 -486 30 -80 50 -103 69 -84 9 9 13 88 15 284 1 150 4 383 7 520 5 202 3 255 -9 291 -8 24 -22 92 -31 152 -8 60 -22 145 -31 189 -8 44 -19 119 -24 167 -4 48 -20 127 -35 175 -43 140 -87 263 -96 269 -5 3 -9 13 -9 24 0 10 -18 42 -40 71 -22 30 -47 74 -56 99 -45 124 -199 393 -254 440 -33 29 -219 276 -270 358 -21 34 -138 161 -293 317 -142 143 -282 284 -310 313 -29 30 -68 62 -88 72 -20 11 -61 41 -90 68 -30 27 -109 92 -176 146 -68 53 -123 101 -123 107 0 15 -209 176 -274 209 -71 38 -191 125 -266 194 -31 28 -102 83 -158 121 -147 101 -186 128 -234 168 -24 19 -54 38 -67 42 -13 4 -40 22 -60 40 -20 18 -106 83 -191 144 -85 61 -192 139 -237 171 -45 33 -87 60 -93 60 -16 0 -160 108 -160 120 0 5 -37 37 -82 71 -46 35 -123 97 -173 139 -49 43 -105 85 -123 94 -36 19 -166 130 -222 191 -84 91 -268 268 -300 289 -51 33 -250 253 -250 275 0 6 -17 30 -38 54 -21 23 -76 92 -123 152 -46 61 -97 124 -113 140 -39 40 -126 173 -126 194 0 9 -16 43 -37 76 -47 79 -148 274 -180 350 -14 33 -35 74 -47 90 -40 54 -128 314 -150 443 -7 45 -20 89 -27 98 -7 8 -13 37 -13 64 -1 45 3 53 45 97 25 26 62 71 81 98 92 129 168 248 168 260 0 13 139 244 178 295 10 14 32 48 47 75 16 28 46 69 67 92 21 24 38 53 38 66 0 12 22 61 48 107 68 120 107 190 170 310 30 58 62 112 72 120 9 8 30 42 45 75 15 33 33 73 41 89 8 16 14 34 14 39 0 6 6 18 14 26 7 9 32 74 55 145 23 70 53 147 66 170 14 24 25 50 25 59 0 14 16 58 40 107 4 8 15 42 24 75 9 33 25 83 34 110 9 28 17 84 18 125 1 45 12 111 27 165 26 95 43 195 54 310 3 41 12 77 21 88 25 28 35 224 37 672 1 220 7 513 14 651 12 248 12 252 -8 293 -12 22 -24 41 -27 41 -2 0 -15 -17 -27 -37z m2126 -15445 c152 -163 300 -349 399 -503 106 -163 208 -361 208 -401 0 -74 -176 -223 -314 -267 -95 -30 -271 -31 -364 -3 -34 11 -67 25 -73 32 -11 13 -14 1169 -3 1224 4 20 12 30 24 30 11 0 65 -50 123 -112z"/>
</g>
</svg>